<?xml version="1.0" encoding="UTF-8" standalone="no"?>
<!DOCTYPE svg PUBLIC "-//W3C//DTD SVG 1.1//EN" "http://www.w3.org/Graphics/SVG/1.1/DTD/svg11.dtd">
<svg width="100%" height="100%" viewBox="0 0 849 1002" version="1.1" xmlns="http://www.w3.org/2000/svg" xmlns:xlink="http://www.w3.org/1999/xlink" xml:space="preserve" xmlns:serif="http://www.serif.com/" style="fill-rule:evenodd;clip-rule:evenodd;stroke-linejoin:round;stroke-miterlimit:2;">
    <g transform="matrix(1,0,0,1,-592.796,-17.9925)">
        <g transform="matrix(1,0,0,1,-16,-17)">
            <path fill="#444444" d="M1005,166C1005,166 1087.86,207.289 1069,266C1069,266 1299.56,307.855 1303,409C1306.44,510.145 1345,670 1345,670C1345,670 1342.78,639.09 1374,588C1405.22,536.91 1436.17,345.684 1389,286C1341.83,226.316 1288.3,195.658 1208,186C1127.7,176.342 1005,166 1005,166Z" style="fill-opacity:0.6;"/>
        </g>
        <path fill="#444444" d="M1083,537C1083,537 1070.18,695.052 1012,728C953.82,760.948 807,802 807,802L782,714C782,714 680.685,650.189 654,659C627.315,667.811 607,695 607,695C607,695 629.955,729.592 626,745C626,745 625.487,715.182 628,708C630.513,700.818 644.668,699.202 649,700C653.332,700.798 719.449,716.356 728,725C736.551,733.644 753.91,739.306 766,756C778.09,772.694 781.573,812.709 749,825C716.427,837.291 688,840 688,840C688,840 688.815,800.724 673,799C657.185,797.276 626,798 626,798C626,798 623.139,845.139 605,859C586.861,872.861 591.312,922.798 603,936C614.688,949.202 664.614,996.402 719,1002C773.386,1007.6 789.817,1022.09 829,1019C868.183,1015.91 1079.78,904.898 1099,863C1118.22,821.102 1109.63,709.554 1109,674C1108.37,638.446 1103.51,583.899 1121,554L1083,537Z"/>
        <path fill="#444444" d="M746,200C746,200 823.763,141.554 963,160C1102.24,178.446 1195.96,167.507 1285,206C1374.04,244.493 1368.38,273.286 1388,298C1388,298 1442.82,278.517 1441,226C1439.18,173.483 1434.51,68.717 1361,41C1287.49,13.283 1269.39,42.557 1262,110C1262,110 1228.38,95.764 1210,113C1210,113 1102.5,17.02 1039,18C975.504,18.98 835.997,76.856 786,124C736.003,171.144 746,200 746,200Z"/>
        <g>
            <g transform="matrix(1,0,0,1,-3,-4)">
                <circle fill="#444444" cx="1319.5" cy="685.5" r="10.5"/>
            </g>
            <g transform="matrix(1,0,0,1,-120,-198)">
                <circle fill="#444444" cx="1319.5" cy="685.5" r="10.5"/>
            </g>
            <g transform="matrix(0.857861,-0.513881,0.513881,0.857861,-128.832,756.917)">
                <rect fill="#444444" x="1276" y="453" width="6" height="229"/>
            </g>
        </g>
    </g>
</svg>
